<?xml version="1.0"?>
<svg version="1.1" xmlns="http://www.w3.org/2000/svg" width="51" height="36" style=""><path fill="#ffffff" d="M18.10400390625,25.794921875l-1.93603515625,0l0-9.2802734375l5.3193359375,0l0,1.6123046875l-3.38330078125,0l0,2.39306640625l3.1484375,0l0,1.60595703125l-3.1484375,0l0,3.6689453125z M28.125493164063,25.794921875l-2.234375-7.28076171875l-0.05712890625,0q0.12060546875,2.2216796875,0.12060546875,2.96435546875l0,4.31640625l-1.75830078125,0l0-9.2802734375l2.6787109375,0l2.1962890625,7.0966796875l0.0380859375,0l2.32958984375-7.0966796875l2.6787109375,0l0,9.2802734375l-1.83447265625,0l0-4.392578125q0-0.31103515625,0.009521484375-0.71728515625t0.085693359375-2.158203125l-0.05712890625,0l-2.39306640625,7.26806640625l-1.802734375,0z M42.825205078125,23.2177734375q0,1.2568359375-0.904541015625,1.98046875t-2.516845703125,0.7236328125q-1.4853515625,0-2.6279296875-0.55859375l0-1.828125q0.939453125,0.4189453125,1.590087890625,0.59033203125t1.190185546875,0.17138671875q0.6474609375,0,0.993408203125-0.24755859375t0.345947265625-0.736328125q0-0.27294921875-0.15234375-0.485595703125t-0.447509765625-0.409423828125t-1.202880859375-0.62841796875q-0.8505859375-0.39990234375-1.27587890625-0.76806640625t-0.67919921875-0.85693359375t-0.25390625-1.142578125q0-1.2314453125,0.834716796875-1.93603515625t2.307373046875-0.70458984375q0.7236328125,0,1.380615234375,0.17138671875t1.374267578125,0.482421875l-0.634765625,1.52978515625q-0.74267578125-0.3046875-1.228271484375-0.42529296875t-0.955322265625-0.12060546875q-0.55859375,0-0.85693359375,0.26025390625t-0.29833984375,0.67919921875q0,0.26025390625,0.12060546875,0.453857421875t0.384033203125,0.37451171875t1.247314453125,0.650634765625q1.30126953125,0.6220703125,1.78369140625,1.247314453125t0.482421875,1.532958984375z"/><path fill="#" d=""/></svg>
