<?xml version="1.0"?>
<svg version="1.1" xmlns="http://www.w3.org/2000/svg" width="52" height="36" style=""><path fill="#fcfcfc" d="M18.58154296875,26.994140625l-2.23388671875,0l0-10.7080078125l6.1376953125,0l0,1.8603515625l-3.90380859375,0l0,2.76123046875l3.6328125,0l0,1.85302734375l-3.6328125,0l0,4.2333984375z M30.144799804687,26.994140625l-2.578125-8.40087890625l-0.06591796875,0q0.13916015625,2.5634765625,0.13916015625,3.42041015625l0,4.98046875l-2.02880859375,0l0-10.7080078125l3.0908203125,0l2.5341796875,8.1884765625l0.0439453125,0l2.68798828125-8.1884765625l3.0908203125,0l0,10.7080078125l-2.11669921875,0l0-5.068359375q0-0.35888671875,0.010986328125-0.82763671875t0.098876953125-2.490234375l-0.06591796875,0l-2.76123046875,8.38623046875l-2.080078125,0z M47.106005859375,24.0205078125q0,1.4501953125-1.043701171875,2.28515625t-2.904052734375,0.8349609375q-1.7138671875,0-3.0322265625-0.64453125l0-2.109375q1.083984375,0.4833984375,1.834716796875,0.68115234375t1.373291015625,0.19775390625q0.7470703125,0,1.146240234375-0.28564453125t0.399169921875-0.849609375q0-0.31494140625-0.17578125-0.560302734375t-0.516357421875-0.472412109375t-1.387939453125-0.72509765625q-0.9814453125-0.46142578125-1.47216796875-0.88623046875t-0.78369140625-0.98876953125t-0.29296875-1.318359375q0-1.4208984375,0.963134765625-2.23388671875t2.662353515625-0.81298828125q0.8349609375,0,1.593017578125,0.19775390625t1.585693359375,0.556640625l-0.732421875,1.76513671875q-0.85693359375-0.3515625-1.417236328125-0.49072265625t-1.102294921875-0.13916015625q-0.64453125,0-0.98876953125,0.30029296875t-0.34423828125,0.78369140625q0,0.30029296875,0.13916015625,0.523681640625t0.443115234375,0.43212890625t1.439208984375,0.750732421875q1.50146484375,0.7177734375,2.05810546875,1.439208984375t0.556640625,1.768798828125z"/><path fill="#" d=""/></svg>
